<svg id="filled_outline" height="512" viewBox="0 0 512 512" width="512" xmlns="http://www.w3.org/2000/svg" data-name="filled outline"><path d="m315.73 86.52v65.48h-75.73l-25.85 22.15-30.15 25.85-16-16 56-72z" fill="#486be0"/><path d="m472 168v24l-40 8.57007-72 15.42993-14.48-9.22-41.52 33.22-72-24 40.71973-89.58008a46.35785 46.35785 0 0 1 27.37011-34.46l41.19043-17.6499 2.71973 7.47998 3.5498 9.76 12.4502 12.45a54.64068 54.64068 0 0 1 16 38.62988v25.37012z" fill="#548aff"/><path d="m214.15 174.15-30.15 25.85-16-16 24.5-31.5z" fill="#f5c99d"/><path d="m472 168v24l-40 8.57v-32.57z" fill="#f5c99d"/><path d="m246.966 297.399 73.034 62.601-16 128h24l48-144-72-104z" fill="#4b6275"/><path d="m376 142.62988v25.37012l-32-24v-62.21l3.5498 9.76 12.4502 12.45a54.64068 54.64068 0 0 1 16 38.62988z" fill="#4976f2"/><path d="m232 216-56 136-112 32 8 24 144-16 88-152z" fill="#62798c"/><path d="m144 336-104-96 64-72 104 96z" fill="#7e57df"/><path d="m104 168v56l48 48 56-8z" fill="#9977ed"/><path d="m376 56v24a24 24 0 0 1 -24 24 24 24 0 0 1 -24-24v-24z" fill="#f5c99d"/><path d="m328 56h48v-13.57781a18.42218 18.42218 0 0 0 -18.42219-18.42219 18.42223 18.42223 0 0 0 -10.21881 3.094l-19.359 12.906z" fill="#b1712c"/><path d="m232 216 40.71834-89.58159a46.37251 46.37251 0 0 0 -.71834 8.138v.003a46.34444 46.34444 0 0 0 21.46325 39.099l52.05575 33.12639-41.519 33.2152z" fill="#4976f2"/><path d="m355.70508 222.749a7.99582 7.99582 0 0 0 5.9707 1.07325l112-24a7.9989 7.9989 0 0 0 6.32422-7.82225v-24a8.00039 8.00039 0 0 0 -8-8h-88v-17.373a62.1588 62.1588 0 0 0 -12.37012-37.38232 31.95645 31.95645 0 0 0 12.37012-25.24468v-37.57812a26.42195 26.42195 0 0 0 -41.07812-21.98438l-19.35938 12.90625a7.99943 7.99943 0 0 0 -3.5625 6.65625v34.72461l-15.28955 6.55273-82.85205 23.01466a7.99761 7.99761 0 0 0 -4.17285 2.79688l-54.17212 69.6499-31.44068 6.28809-22.647-20.90479a7.99871 7.99871 0 0 0 -11.40527.56348l-64 72a7.99834 7.99834 0 0 0 .55371 11.19238l104 96a7.993 7.993 0 0 0 5.42581 2.12206c.13086 0 .2627-.00293.39453-.00977a8.00154 8.00154 0 0 0 5.585-2.67578l40.55518-45.62451-20.45752 49.68213-108.27446 30.93555a8.00044 8.00044 0 0 0 -5.39257 10.22265l8 24a8.00224 8.00224 0 0 0 8.47363 5.4209l144-16a8.001 8.001 0 0 0 6.04-3.94336l42.05176-72.635 46.55273 39.90259-15.4668 123.73242a8.00149 8.00149 0 0 0 7.93852 8.99218h24a8.00026 8.00026 0 0 0 7.58984-5.46973l48-144a8.00115 8.00115 0 0 0 -1.01269-7.084l-67.75049-97.86206 31.22363-24.979zm108.29492-37.21677-24 5.14282v-14.67505h24zm-96-42.90523v9.37281l-19.2002-14.40015-9.5996 12.80078 32 24a8.0033 8.0033 0 0 0 4.7998 1.59956h48v18.10352l-62.4707 13.38671-63.77149-40.58105a38.34446 38.34446 0 0 1 5.48242-67.59375l18.8086-8.061a31.92357 31.92357 0 0 0 34.21435 20.45313 46.27993 46.27993 0 0 1 11.73682 30.91944zm-16-46.627a16.01833 16.01833 0 0 1 -16-16v-16h32v16a16.01833 16.01833 0 0 1 -16 16zm-16-51.71875 15.79785-10.53225a10.42284 10.42284 0 0 1 16.20215 8.67288v5.57812h-32zm-107.30957 74.71875 42.73682-11.87158a54.23143 54.23143 0 0 0 -6.53955 17.63867l-.1709-.07764-8.77759 19.31055h-15.93921a8 8 0 0 0 -5.20605 1.92578l-20.22144 17.33228-11.42163-11.42163zm-3.97363 93.68945c-.04.08789-.06861.1792-.10523.26831l-.009-.00366-16.55472 40.2039-16.04785-14.81352v-34.665l50.959-43.67948h5.70752zm-112.7168-26.41772 78.20483 72.189-35.37671 5.054-42.82812-42.82821zm81.25073-21.70654 9.137 9.137-17.96973 15.4023-5.76758-5.76758zm-27.88061 28.11938 10.62988 10.62988v20.26075l-29.39844-27.137zm-21.9336 131.9082-92.24121-85.1455 44.80469-50.40601v34.95874a8.00235 8.00235 0 0 0 2.34277 5.65723l48 48a8.00719 8.00719 0 0 0 6.78907 2.26269l34.3789-4.91113zm67.66407 59.90235-133.55659 14.83988-3.3125-9.93848 103.96582-29.7041a7.99988 7.99988 0 0 0 5.20019-4.64648l53.15669-129.09477 55.60449 18.53491zm111.13379 95.50488h-9.17188l14.876-119.00781a8.00037 8.00037 0 0 0 -2.73243-7.06641l-52.07666-44.637 31.47359-54.36349 62.54248 90.33936zm-19.833-248.96582-59.44138-19.81348 25.27442-55.60351a54.14263 54.14263 0 0 0 20.93359 24.79l42.6167 27.11963z"/></svg>