<svg height="512" viewBox="0 0 60 60" width="512" xmlns="http://www.w3.org/2000/svg"><g id="Page-1" fill="none" fill-rule="evenodd"><g id="023---Durable-Fabric" fill-rule="nonzero"><path id="Shape" d="m47 30.83c.065929 2.7717035-.7346034 5.4949121-2.29 7.79-3.05 4.58-9.12 6.38-14.71 6.38-5.53 0-11.71-1.82-14.71-6.38-1.5553966-2.2950879-2.355929-5.0182965-2.29-7.79.1594158-6.9760021 3.6410996-13.4563185 9.37-17.44 1.1225505-.740819 2.3402914-1.326142 3.62-1.74 2.6030887-.8666888 5.4169113-.8666888 8.02 0 1.2797086.413858 2.4974495.999181 3.62 1.74 5.7289004 3.9836815 9.2105842 10.4639979 9.37 17.44z" fill="#9d27b0"/><path id="Shape" d="m37.63 13.39c-1.1225505-.740819-2.3402914-1.326142-3.62-1.74-1.2937711-.4278172-2.6473322-.6472224-4.01-.65-.5015572.003105-1.0024691.0364992-1.5.1.8526918.0999715 1.6934341.2838629 2.51.549 1.2797086.413858 2.4974495.999181 3.62 1.74 5.7291812 3.9838878 9.2109008 10.4646423 9.37 17.441.065929 2.7717035-.7346034 5.4949121-2.29 7.79-2.777 4.17-8.058 6.03-13.2 6.331.5.029 1 .049 1.49.049 5.59 0 11.66-1.8 14.71-6.38 1.5553966-2.2950879 2.355929-5.0182965 2.29-7.79-.1594158-6.9760021-3.6410996-13.4563185-9.37-17.44z" fill="#6a1b9a"/><path id="Shape" d="m39.61 9.14-1.98 5.25c-1.1225505-.740819-2.3402914-1.326142-3.62-1.74l1.85-4.92c.2489368-.63155824.1624418-1.34608232-.23-1.9-.3446604-.51922898-.9267917-.83095089-1.55-.83h-8.16c-.6232083-.00095089-1.2053396.31077102-1.55.83-.3924418.55391768-.4789368 1.26844176-.23 1.9l1.85 4.92c-1.2797086.413858-2.4974495.999181-3.62 1.74l-1.98-5.25c-.699171-1.86391091-.4414225-3.95204786.69-5.59 1.094778-1.59538465 2.9051123-2.54917646 4.84-2.55h8.16c1.9348877.00082354 3.745222.95461535 4.84 2.55 1.1314225 1.63795214 1.389171 3.72608909.69 5.59z" fill="#673ab7"/><path id="Shape" d="m38.92 3.55c-1.094778-1.59538465-2.9051123-2.54917646-4.84-2.55h-3c1.9348877.00082354 3.745222.95461535 4.84 2.55 1.1314225 1.63795214 1.389171 3.72608909.69 5.59l-1.48 3.925c.8714558.3656456 1.7081753.8091069 2.5 1.325l1.98-5.25c.699171-1.86391091.4414225-3.95204786-.69-5.59z" fill="#4527a0"/><path id="Shape" d="m59 46c-.0032948 1.1032019-.8967981 1.9967052-2 2-.71 0-1.51 0-1.87.04-.06.08-.13.18-.21.29-.5249766.7105143-1.0926919 1.3884332-1.7 2.03-.9204663.9718228-1.9206207 1.8649373-2.99 2.67-1.5721181 1.1844612-3.2688339 2.1937724-5.06 3.01-5.96 2.75-13.12 2.96-15.17 2.96s-9.21-.21-15.17-2.96c-4.42-2.03-7.45-4.34-9.26-7.07-.19683403-.3146082-.41047705-.6183818-.64-.91-.641447-.0603182-1.28604495-.0803575-1.93-.06-1.1045695 0-2-.8954305-2-2s.8954305-2 2-2c1.00517848-.0453562 2.01219159.0284915 3 .22 1.18.29 1.86.97 2.9 2.54 1.37 2.06 3.93 3.96 7.6 5.65 5.23 2.4 11.65 2.59 13.5 2.59s8.27-.19 13.5-2.59c1.5290426-.6972709 2.9775854-1.5590198 4.32-2.57.8912745-.6682677 1.7242603-1.4109297 2.49-2.22.5036188-.5281442.9713304-1.0893981 1.4-1.68.5134152-.8550453 1.3316348-1.4838953 2.29-1.76.9903776-.1697961 1.9964251-.2301589 3-.18 1.1032019.0032948 1.9967052.8967981 2 2z" fill="#ffdc00"/><path id="Shape" d="m57 44c-.8202945-.020537-1.6410838.0078467-2.458.085.9618828.2676568 1.5775322 1.2054635 1.4406138 2.194459-.1369184.9889956-.9841926 1.7242724-1.9826138 1.720541-.71 0-1.51 0-1.87.04-.06.08-.13.18-.21.29-.5249766.7105143-1.0926919 1.3884332-1.7 2.03-.9204663.9718228-1.9206207 1.8649373-2.99 2.67-1.5721181 1.1844612-3.2688339 2.1937724-5.06 3.01-4.3359864 1.8142487-8.9713131 2.807097-13.67 2.928.629.024 1.145.032 1.5.032 2.05 0 9.21-.21 15.17-2.96 1.7911661-.8162276 3.4878819-1.8255388 5.06-3.01 1.0693793-.8050627 2.0695337-1.6981772 2.99-2.67.6073081-.6415668 1.1750234-1.3194857 1.7-2.03.08-.11.15-.21.21-.29.36-.04 1.16-.04 1.87-.04 1.1045695 0 2-.8954305 2-2s-.8954305-2-2-2z" fill="#fec108"/><path id="Shape" d="m54 38v6.18c-.9583652.2761047-1.7765848.9049547-2.29 1.76-8.01 10.851-26.427 10.5-35.21 6.47-3.67-1.69-6.23-3.59-7.6-5.65-1.04-1.57-1.72-2.25-2.9-2.54v-6.22c1.34717343-.1019575 2.6934776.2084598 3.86.89 1.1918845.899723 2.2259696 1.9912573 3.06 3.23 1.5739688 2.1120141 3.6688508 3.7796505 6.08 4.84 5.9 2.7 16.094 2.7 22 0 2.4111492-1.0603495 4.5060312-2.7279859 6.08-4.84.8340304-1.2387427 1.8681155-2.330277 3.06-3.23 1.1670628-.680177 2.5129376-.9904953 3.86-.89z" fill="#ff9801"/><path id="Shape" d="m51 38.449v5.731c-1.674.418-2.047 1.7-3.69 3.44-4.905 5.166-11.718 7.043-18.81 7.346 8.653.37 18.023-2 23.21-9.026.5134152-.8550453 1.3316348-1.4838953 2.29-1.76v-6.18c-1.0196707-.0466002-2.0386533.1059075-3 .449z" fill="#f57c00"/><path id="Shape" d="m59 36c-.0032948 1.1032019-.8967981 1.9967052-2 2h-3.29c-1.2525337-.0702557-2.4970268.2399961-3.57.89-1.1918845.899723-2.2259696 1.9912573-3.06 3.23-1.5739688 2.1120141-3.6688508 3.7796505-6.08 4.84-3.4990197 1.3891976-7.2355303 2.0821505-11 2.04-3.7644697.0421505-7.5009803-.6508024-11-2.04-2.4111492-1.0603495-4.5060312-2.7279859-6.08-4.84-.8340304-1.2387427-1.8681155-2.330277-3.06-3.23-1.07297322-.6500039-2.31746627-.9602557-3.57-.89h-3.29c-1.1045695 0-2-.8954305-2-2s.8954305-2 2-2h3.29c2.06792378-.0790728 4.1101674.4794895 5.85 1.6 1.1849547.8557345 2.2451139 1.872141 3.15 3.02 3 4.56 9.18 6.38 14.71 6.38 5.59 0 11.66-1.8 14.71-6.38.9048861-1.147859 1.9650453-2.1642655 3.15-3.02 1.7398326-1.1205105 3.7820762-1.6790728 5.85-1.6h3.29c1.1032019.0032948 1.9967052.8967981 2 2z" fill="#ffdc00"/><path id="Shape" d="m57 34h-3c1.1045695 0 2 .8954305 2 2s-.8954305 2-2 2h3c1.1045695 0 2-.8954305 2-2s-.8954305-2-2-2z" fill="#fec108"/><path id="Shape" d="m57 39c1.6568542 0 3-1.3431458 3-3s-1.3431458-3-3-3h-3.29c-2.164458-.0656231-4.3013725.498917-6.151 1.625.2967115-1.2430822.4447482-2.5170027.441-3.795-.1887278-6.8910443-3.4384607-13.3395555-8.865-17.591l1.411-3.748c.8122119-2.16979779.5135378-4.59951134-.8-6.508-1.2820692-1.86686384-3.4012965-2.98258128-5.666-2.983h-8.16c-2.2637243.00119727-4.3818704 1.1163653-5.664 2.982-1.3134088 1.90966335-1.6120445 4.34018435-.8 6.511l1.411 3.746c-5.4271791 4.2511415-8.6776469 10.699656-8.867 17.591-.0037517 1.2776093.1439453 2.5511601.44 3.794-1.849765-1.1247976-3.98607179-1.6889215-6.15-1.624h-3.29c-1.65685425 0-3 1.3431458-3 3s1.34314575 3 3 3h2v4.064c-.578-.048-1.231-.064-2-.064-1.65685425 0-3 1.3431458-3 3s1.34314575 3 3 3c.43 0 1.014 0 1.4.014.113.164.243.36.341.507 1.918 2.89 5.081 5.32 9.671 7.429 6.148 2.83 13.488 3.05 15.588 3.05s9.439-.22 15.59-3.048c1.8562813-.8489646 3.6151961-1.8964007 5.246-3.124 1.1115283-.8382413 2.1514431-1.7674415 3.109-2.778.6121117-.6432089 1.1832352-1.3242152 1.71-2.039.382-.011.901-.011 1.345-.011 1.6568542 0 3-1.3431458 3-3s-1.3431458-3-3-3c-.762 0-1.416 0-2 .04v-4.04zm-35.673-30.21c-.5837991-1.5577485-.369865-3.30244999.573-4.673.9090439-1.32525443 2.4129343-2.11722856 4.02-2.117h8.16c1.6070657-.00022856 3.1109561.79174557 4.02 2.117.9438615 1.36919919 1.1596471 3.11303096.578 4.671l-1.252 3.312c-.5784941-.3406405-1.1776555-.6448969-1.794-.911l1.161-3.1c.370334-.93643726.2444179-1.99638788-.335-2.82-.5284043-.79644876-1.4222165-1.27342424-2.378-1.269h-8.16c-.9512171-.00562396-1.8416281.4670077-2.37 1.258-.5853108.82174748-.7169107 1.88319459-.35 2.823l1.164 3.108c-.61667.2660984-1.2161643.5703543-1.795.911zm8.673 1.21c-1.266806.0015701-2.5274602.1761843-3.747.519l-1.18-3.148c-.129886-.32606182-.0826474-.69603489.125-.979.1576135-.24573323.4300684-.39365885.722-.392h8.16c.2958533-.00077633.5714341.15022684.73.4.2032865.28452098.2459728.65358721.113.977l-1.176 3.14c-1.2196335-.3421398-2.4802859-.5160809-3.747-.517zm-7.593 4.539h.015c.1421236-.0563106.2691551-.1449929.371-.259.9702302-.6470775 2.0160034-1.1729866 3.114-1.566.0312578-.0027549.0623165-.0074304.093-.014.021-.008.035-.025.055-.034 2.5552609-.8826351 5.3327391-.8826351 7.888 0 .02.009.034.026.055.034.0329759.0080882.0663556.0144303.1.019 1.0927958.39316 2.1337605.9176719 3.1 1.562.1018449.1140071.2288764.2026894.371.259h.016c5.1561355 3.8509955 8.2583685 9.8563878 8.415 16.29.0638595 2.5738662-.6780359 5.1033731-2.122 7.235-2.478 3.716-7.666 5.935-13.878 5.935-6.247 0-11.434-2.216-13.89-5.953-1.4371581-2.1275071-2.1747597-4.6503843-2.11-7.217.1539796-6.4326934 3.2532576-12.4384432 8.407-16.291zm-20.407 21.461c0-.5522847.44771525-1 1-1h3.29c1.86552548-.0769818 3.70978263.4200323 5.284 1.424 1.1037245.7986456 2.0908692 1.7470853 2.933 2.818 2.829 4.232 8.61 6.758 15.493 6.758 6.858 0 12.65-2.534 15.5-6.764.8415101-1.0696245 1.828001-2.0167365 2.931-2.814 1.5729759-1.0023939 3.4153563-1.4986744 5.279-1.422h3.29c.5522847 0 1 .4477153 1 1s-.4477153 1-1 1h-3.29c-1.4557298-.0732641-2.8992084.2989426-4.138 1.067-1.291972.9657443-2.4116955 2.1426034-3.312 3.481-1.4729206 1.9637535-3.4280567 3.5138085-5.676 4.5-3.3676778 1.3321074-6.9626876 1.9951326-10.584 1.952-3.6193169.0442263-7.212584-.6170925-10.579-1.947-2.2490119-.9857914-4.2052146-2.5358727-5.679-4.5-.9000511-1.3388858-2.0198039-2.5161138-3.312-3.482-1.23881021-.7700907-2.68315415-1.1437362-4.14-1.071h-3.29c-.55228475 0-1-.4477153-1-1zm23 17.661v-4.044c1.3254734.1957206 2.6609245.316579 4 .362v4c-.988-.026-2.393-.109-4-.318zm-12-9.838c1.1522462 1.2814883 2.5027657 2.3696694 4 3.223v4.489c-.028-.013-.057-.024-.085-.036-1.3645276-.6153616-2.6742473-1.34566-3.915-2.183zm6 4.214c1.2917831.5338724 2.6310494.9446923 4 1.227v4.082c-1.3558343-.247362-2.692496-.5902158-4-1.026zm12 1.942c1.3391237-.0452818 2.6746015-.1664764 4-.363v4.045c-1.607.209-3.012.292-4 .322zm6-.716c1.3689996-.2816603 2.7082952-.6921544 4-1.226v4.284c-1.3074887.4355834-2.6441598.7781054-4 1.025zm6-2.217c1.4973853-.8535188 2.8479264-1.9420549 4-3.224v5.367c-1.2238012.9013495-2.5362433 1.6756803-3.917 2.311-.028.013-.056.023-.083.035zm-36-8.012c.8101827.0223166 1.60039578.2564155 2.292.679.62823684.4637288 1.2013033.9978751 1.708 1.592v6.4c-.4726279-.4546997-.8965843-.9574147-1.265-1.5-.62382411-1.150493-1.57589204-2.0893329-2.735-2.697zm51 6.966c0 .5522847-.4477153 1-1 1-.768 0-1.561 0-1.977.044-.2682408.028796-.513467.1647522-.68.377l-.231.313c-.4978795.6813384-1.0389926 1.3300061-1.62 1.942-.8819785.9296712-1.8392322 1.7849114-2.862 2.557-1.5158953 1.1398293-3.1507573 2.1121631-4.876 2.9-5.781 2.66-12.754 2.867-14.754 2.867s-8.973-.207-14.757-2.867c-4.243-1.95-7.133-4.147-8.843-6.733-.22018564-.3464292-.45955884-.680283-.717-1-.14719846-.1672839-.34605166-.2806126-.565-.322-.70321419-.0767823-1.41104299-.1028497-2.118-.078-.55228475 0-1-.4477153-1-1s.44771525-1 1-1c3.305 0 3.636.151 5.069 2.309 1.475 2.221 4.17 4.242 8.01 6.007 5.414 2.491 12.021 2.684 13.921 2.684s8.506-.193 13.918-2.683c1.5939258-.7278457 3.104389-1.6260767 4.505-2.679.092-.07.175-.147.265-.218.008-.007.016-.012.023-.019.8268976-.6414266 1.605036-1.3433556 2.328-2.1.5274967-.555712 1.0185204-1.1449404 1.47-1.764 1.143-1.537 1.591-1.537 4.491-1.537.5522847 0 1 .4477153 1 1zm-7.1-.655c-.4038991.5565048-.8441951 1.0856618-1.318 1.584-.184.2-.39.378-.585.568v-6.192c.5071424-.595002 1.0808964-1.1298346 1.71-1.594.692225-.4217492 1.48271-.655137 2.293-.677v4.46c-.8484168.4248296-1.5720169 1.0626314-2.1 1.851z" fill="#000"/></g></g></svg>