<?xml version="1.0" encoding="iso-8859-1"?>
<!-- Generator: Adobe Illustrator 19.0.0, SVG Export Plug-In . SVG Version: 6.00 Build 0)  -->
<svg version="1.1" id="Capa_1" xmlns="http://www.w3.org/2000/svg" xmlns:xlink="http://www.w3.org/1999/xlink" x="0px" y="0px"
	 viewBox="0 0 512 512" style="enable-background:new 0 0 512 512;" xml:space="preserve">
<path style="fill:#EDF2FA;" d="M242.999,502v-54h-6.507c-58.27,0-105.507-47.237-105.507-105.507V328H77l21.999-108v-42
	c0-92.784,75.216-168,168-168l0,0c92.784,0,168,75.216,168,168v270.083V502H242.999z"/>
<path style="fill:#A0E557;" d="M346.087,237.902c-3.448,3.448-1.929,9.386,2.78,10.656c4.258,1.148,8.282,3.394,11.625,6.737
	l0.766,0.766c10.191,10.191,10.191,26.715,0,36.906l0,0c-10.191,10.191-26.715,10.191-36.906,0l-0.766-0.766
	c-3.343-3.343-5.588-7.367-6.737-11.625c-1.27-4.708-7.208-6.228-10.656-2.78l-0.636,0.636l-32.662,32.662
	c-2.152,2.152-5.641,2.152-7.793,0l-32.649-32.649c-3.331-3.331-2.048-9.051,2.421-10.543c3.715-1.24,7.206-3.339,10.164-6.297
	l0.766-0.766c10.191-10.191,10.191-26.715,0-36.906l0,0c-10.191-10.191-26.715-10.191-36.906,0l-0.766,0.766
	c-2.958,2.958-5.057,6.449-6.297,10.164c-1.492,4.469-7.211,5.752-10.543,2.421l-32.68-32.68c-2.152-2.152-2.152-5.641,0-7.793
	l33.298-33.298c3.448-3.448,1.929-9.386-2.78-10.656c-4.258-1.148-8.282-3.394-11.625-6.737l-0.766-0.766
	c-10.191-10.191-10.191-26.715,0-36.906l0,0c10.191-10.191,26.715-10.191,36.906,0l0.766,0.766
	c3.343,3.343,5.588,7.367,6.737,11.625c1.27,4.708,7.208,6.228,10.656,2.78l33.298-33.298c2.152-2.152,5.641-2.152,7.793,0
	l33.36,33.36c3.457,3.457,9.409,1.919,10.663-2.806c1.14-4.295,3.394-8.357,6.763-11.726l0.766-0.766
	c10.191-10.191,26.715-10.191,36.906,0l0,0c10.191,10.191,10.191,26.715,0,36.906l-0.766,0.766
	c-3.369,3.369-7.43,5.623-11.726,6.763c-4.725,1.254-6.263,7.206-2.806,10.663l33.329,33.329c2.152,2.152,2.152,5.641,0,7.793
	l-32.662,32.662L346.087,237.902z"/>
<path d="M268.999,322.708c-4.144,0-8.039-1.613-10.968-4.544l-32.648-32.647c-4.05-4.051-5.682-9.8-4.365-15.379
	c1.307-5.542,5.304-9.924,10.691-11.721c2.367-0.791,4.473-2.097,6.259-3.883l0.764-0.764c3.042-3.043,4.717-7.085,4.717-11.385
	s-1.674-8.342-4.715-11.382c-3.04-3.04-7.082-4.715-11.382-4.715c-4.299,0-8.342,1.675-11.382,4.715l-0.764,0.764
	c-1.789,1.789-3.095,3.895-3.884,6.262c-1.798,5.387-6.181,9.384-11.723,10.691c-5.578,1.316-11.327-0.316-15.377-4.365
	l-32.68-32.68c-2.93-2.931-4.542-6.825-4.542-10.968c0-4.144,1.614-8.039,4.543-10.969l29.293-29.293
	c-3.849-1.777-7.377-4.23-10.401-7.254l-0.769-0.77c-14.072-14.071-14.072-36.972,0.002-51.046
	c14.074-14.073,36.975-14.074,51.049,0l0.768,0.77c3.021,3.021,5.475,6.55,7.252,10.397l29.294-29.294
	c6.047-6.047,15.887-6.046,21.934-0.001l29.339,29.341c1.781-3.891,4.252-7.458,7.305-10.511l0.769-0.769
	c6.815-6.815,15.88-10.57,25.522-10.57s18.707,3.755,25.524,10.572c14.074,14.074,14.074,36.975,0,51.049l-0.769,0.768
	c-3.051,3.052-6.618,5.522-10.508,7.304l29.308,29.308c2.929,2.928,4.543,6.823,4.543,10.968c0,4.143-1.613,8.038-4.543,10.968
	l-29.293,29.293c3.848,1.777,7.377,4.232,10.401,7.255l0.764,0.764c14.076,14.076,14.076,36.977,0.002,51.051
	c-6.817,6.817-15.882,10.573-25.524,10.573s-18.707-3.755-25.524-10.572l-0.768-0.77c-3.021-3.021-5.476-6.549-7.253-10.398
	l-29.293,29.294C277.038,321.095,273.143,322.708,268.999,322.708z M243.307,275.156l25.692,25.691l30.123-30.123
	c4.127-4.128,10.197-5.755,15.844-4.246c5.694,1.521,10.008,5.818,11.538,11.494c0.726,2.691,2.162,5.167,4.152,7.157l0.769,0.77
	c3.038,3.037,7.08,4.712,11.38,4.712s8.342-1.675,11.382-4.715c6.276-6.276,6.276-16.489,0-22.765l-0.764-0.764
	c-1.993-1.993-4.469-3.43-7.161-4.155c-5.676-1.53-9.973-5.844-11.494-11.538c-1.508-5.646,0.12-11.717,4.247-15.844l30.124-30.123
	l-30.154-30.154c-4.137-4.137-5.761-10.22-4.238-15.875c1.536-5.705,5.854-10.013,11.55-11.524c2.717-0.722,5.213-2.163,7.219-4.169
	l0.769-0.769c3.038-3.038,4.712-7.08,4.712-11.38s-1.674-8.342-4.715-11.382c-6.275-6.277-16.488-6.277-22.764,0l-0.769,0.768
	c-2.004,2.005-3.446,4.501-4.167,7.218c-1.512,5.697-5.821,10.015-11.526,11.551c-5.656,1.523-11.738-0.102-15.875-4.239
	l-30.185-30.185l-30.123,30.123c-4.126,4.127-10.197,5.755-15.843,4.247c-5.695-1.521-10.009-5.817-11.54-11.494
	c-0.726-2.691-2.162-5.167-4.153-7.157l-0.768-0.77c-3.038-3.037-7.081-4.712-11.38-4.712c-4.299,0-8.342,1.675-11.382,4.715
	c-3.041,3.04-4.715,7.082-4.715,11.382s1.674,8.342,4.715,11.382l0.768,0.77c1.988,1.987,4.464,3.424,7.156,4.149
	c5.675,1.53,9.973,5.844,11.494,11.538c1.508,5.646-0.12,11.717-4.247,15.845l-30.124,30.123l25.723,25.723
	c1.683-3.227,3.85-6.173,6.479-8.803l0.764-0.764c14.076-14.077,36.977-14.077,51.051-0.003
	c6.817,6.818,10.572,15.883,10.572,25.524s-3.755,18.706-10.572,25.524l-0.764,0.764
	C249.482,271.305,246.534,273.473,243.307,275.156z"/>
<path d="M435,512c-2.63,0-5.21-1.07-7.07-2.931C426.07,507.21,425,504.63,425,502s1.07-5.21,2.93-7.07
	c1.86-1.86,4.44-2.93,7.07-2.93s5.21,1.069,7.07,2.93S445,499.37,445,502s-1.07,5.21-2.93,7.069C440.21,510.93,437.63,512,435,512z"
	/>
<path d="M434.999,473c-5.523,0-10-4.478-10-10V178c0-87.121-70.878-158-158-158c-24.85,0-48.628,5.601-70.674,16.646
	c-4.938,2.475-10.947,0.477-13.42-4.461c-2.474-4.938-0.477-10.946,4.461-13.42C212.218,6.313,239.011,0,266.999,0
	c98.15,0,178,79.851,178,178v285C444.999,468.522,440.522,473,434.999,473z"/>
<path d="M157.546,60.548c-2.824,0-5.631-1.189-7.609-3.506c-3.587-4.199-3.09-10.512,1.109-14.099l0.426-0.363
	c4.206-3.58,10.517-3.072,14.096,1.134c3.58,4.206,3.072,10.518-1.134,14.097l-0.398,0.342
	C162.152,59.761,159.843,60.548,157.546,60.548z"/>
<path d="M242.999,512c-5.523,0-10-4.478-10-10v-44.052c-29.291-0.866-56.765-12.611-77.695-33.294l-0.499-0.497
	c-3.102-3.102-6.069-6.428-8.807-9.874c-1.271-1.601-2.52-3.262-3.712-4.938c-13.936-19.606-21.301-42.723-21.301-66.852V338H77
	c-3.002,0-5.846-1.349-7.745-3.674s-2.653-5.381-2.054-8.322l21.798-107.013V178c0-37.498,11.525-73.365,33.33-103.726
	c3.222-4.487,9.47-5.51,13.956-2.289c4.486,3.222,5.51,9.47,2.289,13.955C119.226,112.879,109,144.713,109,178v42
	c0,0.67-0.067,1.339-0.201,1.996L89.242,318h41.744c5.523,0,10,4.478,10,10v14.493c0,19.952,6.087,39.063,17.603,55.265
	c0.986,1.387,2.02,2.762,3.071,4.085c2.266,2.854,4.722,5.606,7.299,8.184l0.411,0.409C187.355,428.208,211.195,438,236.492,438
	h6.507c5.523,0,10,4.478,10,10v54C252.999,507.522,248.522,512,242.999,512z"/>
<g>
</g>
<g>
</g>
<g>
</g>
<g>
</g>
<g>
</g>
<g>
</g>
<g>
</g>
<g>
</g>
<g>
</g>
<g>
</g>
<g>
</g>
<g>
</g>
<g>
</g>
<g>
</g>
<g>
</g>
</svg>
