<svg height="409pt" viewBox="0 -27 409.6 409" width="409pt" xmlns="http://www.w3.org/2000/svg"><path d="m356.800781 123.179688h-304c-21.621093 0-39.148437-17.527344-39.148437-39.148438v-30.929688c0-21.621093 17.527344-39.148437 39.148437-39.148437h304c21.617188 0 39.144531 17.527344 39.144531 39.148437v30.933594c0 21.617188-17.527343 39.144532-39.144531 39.144532zm0 0" fill="#816982"/><path d="m356.800781 136.832031h-304c-29.121093 0-52.800781-23.683593-52.800781-52.800781v-30.929688c0-29.113281 23.679688-52.800781 52.800781-52.800781h304c29.121094 0 52.800781 23.6875 52.800781 52.800781v30.933594c0 29.113282-23.679687 52.796875-52.800781 52.796875zm-304-109.226562c-14.054687 0-25.492187 11.433593-25.492187 25.496093v30.933594c0 14.058594 11.4375 25.492188 25.492187 25.492188h304c14.054688 0 25.496094-11.433594 25.496094-25.496094v-30.929688c-.003906-14.0625-11.441406-25.496093-25.496094-25.496093zm0 0" fill="#5c128d"/><path d="m356.800781 232.40625h-304c-21.621093 0-39.148437-17.527344-39.148437-39.148438v-30.933593c0-21.617188 17.527344-39.144531 39.148437-39.144531h304c21.617188 0 39.144531 17.527343 39.144531 39.148437v30.933594c0 21.617187-17.527343 39.144531-39.144531 39.144531zm0 0" fill="#d6d6d6"/><path d="m356.800781 246.058594h-304c-29.121093 0-52.800781-23.683594-52.800781-52.800782v-30.933593c0-29.109375 23.679688-52.796875 52.800781-52.796875h304c29.121094 0 52.800781 23.6875 52.800781 52.800781v30.933594c0 29.113281-23.679687 52.796875-52.800781 52.796875zm-304-109.226563c-14.054687 0-25.492187 11.433594-25.492187 25.496094v30.933594c0 14.058593 11.4375 25.492187 25.492187 25.492187h304c14.054688 0 25.496094-11.433594 25.496094-25.496094v-30.933593c0-14.058594-11.441406-25.492188-25.496094-25.492188zm0 0" fill="#5c128d"/><path d="m356.800781 341.632812h-304c-21.621093 0-39.148437-17.527343-39.148437-39.148437v-30.933594c0-21.617187 17.527344-39.144531 39.148437-39.144531h304c21.617188 0 39.144531 17.527344 39.144531 39.148438v30.933593c0 21.617188-17.527343 39.144531-39.144531 39.144531zm0 0" fill="#816982"/><g fill="#5c128d"><path d="m356.800781 355.285156h-304c-29.121093 0-52.800781-23.683594-52.800781-52.800781v-30.933594c0-29.109375 23.679688-52.796875 52.800781-52.796875h304c29.121094 0 52.800781 23.6875 52.800781 52.800782v30.933593c0 29.113281-23.679687 52.796875-52.800781 52.796875zm-304-109.226562c-14.054687 0-25.492187 11.433594-25.492187 25.496094v30.933593c0 14.058594 11.4375 25.492188 25.492187 25.492188h304c14.054688 0 25.496094-11.433594 25.496094-25.496094v-30.933594c0-14.058593-11.441406-25.492187-25.496094-25.492187zm0 0"/><path d="m95.574219 287.019531c0 7.539063-6.113281 13.652344-13.652344 13.652344-7.542969 0-13.65625-6.113281-13.65625-13.652344 0-7.539062 6.113281-13.652343 13.65625-13.652343 7.539063 0 13.652344 6.113281 13.652344 13.652343zm0 0"/><path d="m95.574219 177.792969c0 7.539062-6.113281 13.652343-13.652344 13.652343-7.542969 0-13.65625-6.113281-13.65625-13.652343 0-7.539063 6.113281-13.652344 13.65625-13.652344 7.539063 0 13.652344 6.113281 13.652344 13.652344zm0 0"/><path d="m95.574219 68.566406c0 7.539063-6.113281 13.652344-13.652344 13.652344-7.542969 0-13.65625-6.113281-13.65625-13.652344 0-7.539062 6.113281-13.652344 13.65625-13.652344 7.539063 0 13.652344 6.113282 13.652344 13.652344zm0 0"/></g><path d="m341.332031 82.21875h-54.613281c-7.546875 0-13.652344-6.113281-13.652344-13.652344 0-7.539062 6.105469-13.652344 13.652344-13.652344h54.613281c7.546875 0 13.65625 6.113282 13.65625 13.652344 0 7.539063-6.109375 13.652344-13.65625 13.652344zm0 0" fill="#fff"/><path d="m341.332031 191.445312h-54.613281c-7.546875 0-13.652344-6.113281-13.652344-13.652343 0-7.539063 6.105469-13.652344 13.652344-13.652344h54.613281c7.546875 0 13.65625 6.113281 13.65625 13.652344 0 7.539062-6.109375 13.652343-13.65625 13.652343zm0 0" fill="#5c128d"/><path d="m341.332031 300.671875h-54.613281c-7.546875 0-13.652344-6.113281-13.652344-13.652344 0-7.539062 6.105469-13.652343 13.652344-13.652343h54.613281c7.546875 0 13.65625 6.113281 13.65625 13.652343 0 7.539063-6.109375 13.652344-13.65625 13.652344zm0 0" fill="#fff"/></svg>